# xmcd CD database file
#
# Track frame offsets:
#	150
#	28187
#	52930
#	80765
#	96052
#	119455
#	138172
#	159152
#	183462
#	207502
#	235575
#
# Disc length: 3395 seconds
#
# Revision: 2
# Processed by: cddbd v1.5.1PL0 Copyright (c) Steve Scherf et al.
# Submitted via: CDex 1.50beta10
#
DISCID=8b0d410b
DTITLE=Christian Escoudé - Ma ya. Ya
DYEAR=2005
DGENRE=Jazz
TTITLE0=Ma Ya. Ya
TTITLE1=Mister Wonder
TTITLE2=P'tit Frère
TTITLE3=Le Quintet
TTITLE4=Insensiblement
TTITLE5=Rag Doll
TTITLE6=Made In Valse
TTITLE7=Iles De Pâques
TTITLE8=Wes
TTITLE9=Lumières d'Automne
TTITLE10=Ritournelle
EXTD=YEAR: 2005
EXTT0=
EXTT1=
EXTT2=
EXTT3=
EXTT4=
EXTT5=
EXTT6=
EXTT7=
EXTT8=
EXTT9=
EXTT10=
PLAYORDER=
